<svg width="300" height="304" viewBox="0 0 300 304" fill="none" xmlns="http://www.w3.org/2000/svg">
<path d="M123.197 121.888C122.409 120.804 122.649 119.287 123.733 118.5C124.817 117.712 126.334 117.952 127.122 119.036C127.909 120.12 127.669 121.637 126.585 122.425C125.501 123.212 123.984 122.972 123.197 121.888Z" fill="#ECECEC"/>
<path d="M109.987 143.456C108.712 143.042 108.015 141.674 108.429 140.399C108.843 139.125 110.212 138.428 111.486 138.842C112.76 139.256 113.458 140.624 113.043 141.899C112.629 143.173 111.261 143.87 109.987 143.456Z" fill="#ECECEC"/>
<path d="M111.977 168.661C110.702 169.075 109.334 168.378 108.92 167.104C108.506 165.829 109.203 164.461 110.477 164.047C111.752 163.633 113.12 164.33 113.534 165.604C113.948 166.878 113.251 168.247 111.977 168.661Z" fill="#ECECEC"/>
<path d="M128.418 187.898C127.631 188.982 126.113 189.222 125.029 188.435C123.946 187.647 123.705 186.13 124.493 185.046C125.28 183.962 126.797 183.722 127.881 184.509C128.965 185.297 129.206 186.814 128.418 187.898Z" fill="#ECECEC"/>
<path d="M151.886 193.13C151.886 194.47 150.8 195.556 149.46 195.556C148.121 195.556 147.034 194.47 147.034 193.13C147.034 191.79 148.121 190.704 149.46 190.704C150.8 190.704 151.886 191.79 151.886 193.13Z" fill="#ECECEC"/>
<path d="M176.397 184.107C177.184 185.191 176.944 186.708 175.86 187.496C174.776 188.283 173.259 188.043 172.472 186.959C171.684 185.875 171.924 184.358 173.008 183.571C174.092 182.783 175.609 183.023 176.397 184.107Z" fill="#ECECEC"/>
<path d="M189.578 162.52C190.853 162.934 191.55 164.303 191.136 165.577C190.722 166.852 189.353 167.549 188.079 167.135C186.805 166.721 186.108 165.352 186.522 164.078C186.936 162.804 188.304 162.106 189.578 162.52Z" fill="#ECECEC"/>
<path d="M187.588 137.306C188.863 136.892 190.231 137.589 190.645 138.864C191.059 140.138 190.362 141.507 189.088 141.921C187.813 142.335 186.445 141.637 186.031 140.363C185.617 139.089 186.314 137.72 187.588 137.306Z" fill="#ECECEC"/>
<path d="M171.166 118.088C171.954 117.004 173.471 116.764 174.555 117.552C175.638 118.339 175.879 119.856 175.091 120.94C174.304 122.024 172.787 122.264 171.703 121.477C170.619 120.689 170.378 119.172 171.166 118.088Z" fill="#ECECEC"/>
<path d="M147.034 115.5C147.034 114.16 148.121 113.074 149.46 113.074C150.8 113.074 151.886 114.16 151.886 115.5C151.886 116.84 150.8 117.926 149.46 117.926C148.121 117.926 147.034 116.84 147.034 115.5Z" fill="#ECECEC"/>
<path d="M108.198 119.025C107.21 118.12 107.143 116.585 108.048 115.597C108.954 114.609 110.488 114.542 111.476 115.447C112.464 116.353 112.531 117.887 111.626 118.875C110.721 119.863 109.186 119.93 108.198 119.025Z" fill="#ECECEC"/>
<path d="M96.1312 150.088C94.8 149.937 93.8438 148.735 93.9954 147.403C94.147 146.072 95.349 145.116 96.6802 145.268C98.0114 145.419 98.9677 146.621 98.8161 147.952C98.6645 149.284 97.4624 150.24 96.1312 150.088Z" fill="#ECECEC"/>
<path d="M104.645 182.326C103.479 182.986 101.999 182.576 101.339 181.41C100.679 180.244 101.09 178.763 102.256 178.104C103.422 177.444 104.902 177.854 105.562 179.02C106.222 180.186 105.811 181.666 104.645 182.326Z" fill="#ECECEC"/>
<path d="M130.538 203.403C129.982 204.622 128.543 205.16 127.324 204.604C126.105 204.049 125.567 202.61 126.122 201.391C126.678 200.172 128.117 199.634 129.336 200.189C130.555 200.745 131.093 202.183 130.538 203.403Z" fill="#ECECEC"/>
<path d="M163.731 205.195C163.998 206.507 163.151 207.788 161.838 208.055C160.525 208.323 159.244 207.475 158.977 206.162C158.71 204.849 159.557 203.568 160.87 203.301C162.183 203.034 163.464 203.882 163.731 205.195Z" fill="#ECECEC"/>
<path d="M191.85 187.189C192.838 188.094 192.905 189.628 192 190.616C191.095 191.604 189.56 191.671 188.572 190.766C187.585 189.861 187.517 188.327 188.423 187.339C189.328 186.351 190.862 186.284 191.85 187.189Z" fill="#ECECEC"/>
<path d="M203.86 156.078C205.191 156.23 206.148 157.432 205.996 158.763C205.845 160.094 204.642 161.05 203.311 160.899C201.98 160.747 201.024 159.545 201.175 158.214C201.327 156.883 202.529 155.926 203.86 156.078Z" fill="#ECECEC"/>
<path d="M195.327 123.84C196.493 123.18 197.974 123.591 198.633 124.757C199.293 125.923 198.883 127.403 197.717 128.063C196.551 128.723 195.071 128.312 194.411 127.146C193.751 125.98 194.161 124.5 195.327 123.84Z" fill="#ECECEC"/>
<path d="M169.52 102.802C170.076 101.582 171.514 101.044 172.734 101.6C173.953 102.155 174.491 103.594 173.935 104.813C173.38 106.033 171.941 106.571 170.722 106.015C169.503 105.46 168.965 104.021 169.52 102.802Z" fill="#ECECEC"/>
<path d="M136.128 100.886C135.861 99.5736 136.708 98.2927 138.021 98.0255C139.334 97.7583 140.615 98.606 140.882 99.9189C141.149 101.232 140.302 102.513 138.989 102.78C137.676 103.047 136.395 102.199 136.128 100.886Z" fill="#ECECEC"/>
<path d="M93.0861 125.147C90.7361 123.86 89.875 120.911 91.1627 118.561C92.4503 116.211 95.3992 115.35 97.7491 116.638C100.099 117.925 100.96 120.874 99.6725 123.224C98.3849 125.574 95.436 126.435 93.0861 125.147Z" fill="#ECECEC"/>
<path d="M87.5412 164.001C84.8832 164.341 82.4532 162.461 82.1137 159.803C81.7742 157.145 83.6537 154.715 86.3117 154.376C88.9697 154.036 91.3997 155.915 91.7392 158.574C92.0787 161.232 90.1992 163.661 87.5412 164.001Z" fill="#ECECEC"/>
<path d="M105.943 198.692C103.992 200.529 100.921 200.437 99.0844 198.486C97.2474 196.536 97.3397 193.465 99.2905 191.628C101.241 189.791 104.312 189.883 106.149 191.834C107.986 193.785 107.894 196.855 105.943 198.692Z" fill="#ECECEC"/>
<path d="M141.275 215.948C140.777 218.581 138.238 220.311 135.605 219.813C132.973 219.314 131.242 216.776 131.741 214.143C132.239 211.51 134.778 209.78 137.411 210.278C140.043 210.777 141.774 213.315 141.275 215.948Z" fill="#ECECEC"/>
<path d="M179.797 209.117C180.942 211.54 179.905 214.431 177.482 215.576C175.059 216.72 172.167 215.683 171.023 213.26C169.879 210.837 170.915 207.946 173.338 206.801C175.761 205.657 178.653 206.694 179.797 209.117Z" fill="#ECECEC"/>
<path d="M207.247 180.943C209.596 182.231 210.458 185.18 209.17 187.529C207.882 189.879 204.933 190.741 202.584 189.453C200.234 188.165 199.372 185.216 200.66 182.866C201.948 180.516 204.897 179.655 207.247 180.943Z" fill="#ECECEC"/>
<path d="M212.697 142.042C215.355 141.703 217.785 143.582 218.124 146.24C218.464 148.898 216.584 151.328 213.926 151.668C211.268 152.007 208.838 150.128 208.499 147.47C208.159 144.812 210.039 142.382 212.697 142.042Z" fill="#ECECEC"/>
<path d="M194.285 107.36C196.236 105.523 199.307 105.615 201.144 107.566C202.981 109.517 202.889 112.588 200.938 114.425C198.987 116.262 195.916 116.169 194.079 114.219C192.242 112.268 192.335 109.197 194.285 107.36Z" fill="#ECECEC"/>
<path d="M159.057 90.1328C159.556 87.5 162.094 85.7698 164.727 86.2682C167.36 86.7667 169.09 89.3051 168.592 91.938C168.093 94.5708 165.555 96.301 162.922 95.8026C160.289 95.3041 158.559 92.7657 159.057 90.1328Z" fill="#ECECEC"/>
<path d="M120.242 96.8696C119.097 94.4466 120.134 91.5547 122.557 90.4105C124.98 89.2662 127.872 90.3028 129.016 92.7258C130.16 95.1488 129.124 98.0407 126.701 99.1849C124.278 100.329 121.386 99.2926 120.242 96.8696Z" fill="#ECECEC"/>
<path d="M75.6201 136.324C73.0248 135.657 71.4617 133.012 72.1288 130.417C72.7959 127.822 75.4405 126.259 78.0357 126.926C80.631 127.593 82.1941 130.237 81.527 132.833C80.86 135.428 78.2153 136.991 75.6201 136.324Z" fill="#ECECEC"/>
<path d="M80.0475 183.394C77.5558 184.38 74.7368 183.159 73.751 180.668C72.7652 178.176 73.986 175.357 76.4777 174.371C78.9694 173.385 81.7884 174.606 82.7742 177.098C83.76 179.59 82.5392 182.409 80.0475 183.394Z" fill="#ECECEC"/>
<path d="M111.38 218.837C109.943 221.099 106.945 221.768 104.683 220.332C102.421 218.896 101.751 215.897 103.188 213.635C104.624 211.373 107.622 210.704 109.884 212.14C112.147 213.577 112.816 216.575 111.38 218.837Z" fill="#ECECEC"/>
<path d="M157.61 229.092C157.777 231.767 155.745 234.071 153.071 234.238C150.396 234.406 148.093 232.373 147.925 229.699C147.758 227.025 149.79 224.721 152.464 224.553C155.138 224.386 157.442 226.418 157.61 229.092Z" fill="#ECECEC"/>
<path d="M200.8 210.248C202.508 212.313 202.218 215.371 200.153 217.079C198.088 218.786 195.029 218.496 193.322 216.431C191.614 214.366 191.904 211.308 193.969 209.6C196.035 207.893 199.093 208.183 200.8 210.248Z" fill="#ECECEC"/>
<path d="M224.997 169.53C227.592 170.197 229.155 172.841 228.488 175.437C227.821 178.032 225.176 179.595 222.581 178.928C219.986 178.261 218.423 175.616 219.09 173.021C219.757 170.426 222.402 168.863 224.997 169.53Z" fill="#ECECEC"/>
<path d="M220.437 122.45C222.928 121.464 225.747 122.685 226.733 125.176C227.719 127.668 226.498 130.487 224.007 131.473C221.515 132.459 218.696 131.238 217.71 128.746C216.724 126.255 217.945 123.435 220.437 122.45Z" fill="#ECECEC"/>
<path d="M189.114 87.0167C190.551 84.7546 193.549 84.0852 195.811 85.5216C198.073 86.958 198.742 89.9562 197.306 92.2183C195.87 94.4804 192.871 95.1498 190.609 93.7134C188.347 92.277 187.678 89.2788 189.114 87.0167Z" fill="#ECECEC"/>
<path d="M143.017 76.7612C142.849 74.0868 144.881 71.783 147.556 71.6155C150.23 71.4479 152.534 73.4801 152.701 76.1544C152.869 78.8288 150.837 81.1326 148.162 81.3002C145.488 81.4677 143.184 79.4356 143.017 76.7612Z" fill="#ECECEC"/>
<path d="M99.4565 95.5867C97.749 93.5215 98.0389 90.4632 100.104 88.7557C102.169 87.0482 105.227 87.3381 106.935 89.4032C108.642 91.4683 108.353 94.5267 106.287 96.2342C104.222 97.9417 101.164 97.6518 99.4565 95.5867Z" fill="#ECECEC"/>
<path d="M63.7 154.162C59.6806 154.142 56.4386 150.867 56.4587 146.848C56.4788 142.828 59.7535 139.586 63.7728 139.607C67.7922 139.627 71.0342 142.901 71.0141 146.921C70.994 150.94 67.7193 154.182 63.7 154.162Z" fill="#ECECEC"/>
<path d="M81.0282 204.915C77.7646 207.262 73.217 206.518 70.8707 203.255C68.5245 199.991 69.2681 195.443 72.5317 193.097C75.7952 190.751 80.3429 191.494 82.6891 194.758C85.0353 198.022 84.2917 202.569 81.0282 204.915Z" fill="#ECECEC"/>
<path d="M124.936 235.733C123.674 239.55 119.558 241.621 115.742 240.36C111.925 239.099 109.854 234.982 111.115 231.166C112.376 227.35 116.492 225.278 120.309 226.539C124.125 227.801 126.197 231.917 124.936 235.733Z" fill="#ECECEC"/>
<path d="M178.65 234.848C179.873 238.677 177.761 242.772 173.932 243.995C170.103 245.218 166.008 243.106 164.785 239.277C163.562 235.448 165.675 231.353 169.503 230.13C173.332 228.907 177.428 231.019 178.65 234.848Z" fill="#ECECEC"/>
<path d="M221.29 202.649C224.53 205.027 225.228 209.582 222.849 212.822C220.47 216.062 215.915 216.76 212.676 214.381C209.436 212.002 208.738 207.448 211.116 204.208C213.495 200.968 218.05 200.27 221.29 202.649Z" fill="#ECECEC"/>
<path d="M237.258 151.331C241.277 151.352 244.519 154.626 244.499 158.646C244.479 162.665 241.205 165.907 237.185 165.887C233.166 165.867 229.924 162.592 229.944 158.573C229.964 154.553 233.239 151.311 237.258 151.331Z" fill="#ECECEC"/>
<path d="M219.788 100.606C223.051 98.2602 227.599 99.0038 229.945 102.267C232.291 105.531 231.548 110.079 228.284 112.425C225.021 114.771 220.473 114.027 218.127 110.764C215.781 107.5 216.524 102.953 219.788 100.606Z" fill="#ECECEC"/>
<path d="M175.871 69.7887C177.132 65.9723 181.248 63.9009 185.065 65.1621C188.881 66.4232 190.953 70.5395 189.691 74.3559C188.43 78.1723 184.314 80.2437 180.498 78.9825C176.681 77.7213 174.61 73.6051 175.871 69.7887Z" fill="#ECECEC"/>
<path d="M122.327 70.6546C121.104 66.8258 123.216 62.7305 127.045 61.5076C130.874 60.2847 134.969 62.3972 136.192 66.2261C137.415 70.0549 135.302 74.1502 131.474 75.3731C127.645 76.596 123.55 74.4835 122.327 70.6546Z" fill="#ECECEC"/>
<path d="M79.2133 102.921C75.9734 100.542 75.2753 95.987 77.6541 92.7471C80.0329 89.5072 84.5877 88.8092 87.8276 91.188C91.0675 93.5668 91.7656 98.1216 89.3868 101.362C87.008 104.601 82.4532 105.299 79.2133 102.921Z" fill="#ECECEC"/>
<path d="M55.4951 175.517C50.2712 176.714 45.0665 173.449 43.8702 168.225C42.6739 163.001 45.939 157.796 51.163 156.6C56.3869 155.403 61.5916 158.669 62.7879 163.892C63.9842 169.116 60.7191 174.321 55.4951 175.517Z" fill="#ECECEC"/>
<path d="M87.0512 226.983C83.5281 231.021 77.3983 231.439 73.3599 227.916C69.3215 224.392 68.9038 218.263 72.4269 214.224C75.95 210.186 82.0798 209.768 86.1182 213.291C90.1566 216.814 90.5744 222.944 87.0512 226.983Z" fill="#ECECEC"/>
<path d="M142.884 250.016C142.408 255.354 137.694 259.295 132.356 258.819C127.018 258.342 123.077 253.629 123.554 248.291C124.03 242.953 128.744 239.012 134.082 239.488C139.42 239.965 143.361 244.678 142.884 250.016Z" fill="#ECECEC"/>
<path d="M201.676 235.786C204.428 240.384 202.931 246.343 198.333 249.095C193.734 251.847 187.775 250.35 185.023 245.752C182.271 241.153 183.768 235.194 188.367 232.442C192.965 229.69 198.924 231.187 201.676 235.786Z" fill="#ECECEC"/>
<path d="M240.595 189.891C245.524 191.994 247.816 197.695 245.713 202.624C243.61 207.553 237.909 209.845 232.98 207.742C228.051 205.639 225.759 199.939 227.862 195.009C229.965 190.08 235.665 187.788 240.595 189.891Z" fill="#ECECEC"/>
<path d="M245.463 129.587C250.687 128.391 255.892 131.656 257.088 136.88C258.284 142.104 255.019 147.309 249.795 148.505C244.571 149.701 239.366 146.436 238.17 141.212C236.974 135.988 240.239 130.784 245.463 129.587Z" fill="#ECECEC"/>
<path d="M213.746 78.1792C217.269 74.1407 223.399 73.723 227.437 77.2461C231.475 80.7693 231.893 86.8991 228.37 90.9375C224.847 94.9759 218.717 95.3936 214.679 91.8705C210.64 88.3474 210.223 82.2176 213.746 78.1792Z" fill="#ECECEC"/>
<path d="M157.913 55.1548C158.389 49.8168 163.103 45.8758 168.441 46.3524C173.779 46.8289 177.72 51.5425 177.243 56.8805C176.767 62.2185 172.053 66.1595 166.715 65.6829C161.377 65.2064 157.436 60.4928 157.913 55.1548Z" fill="#ECECEC"/>
<path d="M99.2915 69.3098C96.5394 64.7111 98.0363 58.7522 102.635 56.0002C107.234 53.2481 113.192 54.7451 115.945 59.3437C118.697 63.9423 117.2 69.9012 112.601 72.6533C108.002 75.4053 102.044 73.9084 99.2915 69.3098Z" fill="#ECECEC"/>
<path d="M59.9085 115.394C54.979 113.291 52.6875 107.59 54.7903 102.661C56.893 97.7315 62.5938 95.44 67.5232 97.5427C72.4527 99.6455 74.7442 105.346 72.6414 110.276C70.5387 115.205 64.8379 117.497 59.9085 115.394Z" fill="#ECECEC"/>
<path d="M53.1432 202.386C47.1509 205.381 39.8654 202.951 36.8706 196.959C33.8758 190.966 36.3058 183.681 42.2982 180.686C48.2905 177.691 55.576 180.121 58.5708 186.113C61.5656 192.106 59.1356 199.391 53.1432 202.386Z" fill="#ECECEC"/>
<path d="M101.046 250.045C97.958 255.99 90.6357 258.306 84.6906 255.219C78.7456 252.131 76.4292 244.809 79.5168 238.864C82.6044 232.919 89.9268 230.602 95.8718 233.69C101.817 236.778 104.133 244.1 101.046 250.045Z" fill="#ECECEC"/>
<path d="M167.841 260.319C168.837 266.943 164.275 273.121 157.65 274.118C151.026 275.114 144.848 270.552 143.851 263.927C142.855 257.303 147.417 251.125 154.042 250.128C160.666 249.132 166.844 253.694 167.841 260.319Z" fill="#ECECEC"/>
<path d="M228.009 229.395C232.709 234.168 232.649 241.848 227.875 246.548C223.102 251.248 215.422 251.188 210.722 246.415C206.022 241.641 206.082 233.961 210.855 229.261C215.629 224.561 223.309 224.621 228.009 229.395Z" fill="#ECECEC"/>
<path d="M258.261 169.202C264.869 170.301 269.335 176.549 268.235 183.157C267.136 189.766 260.888 194.231 254.28 193.132C247.671 192.033 243.206 185.784 244.305 179.176C245.404 172.568 251.653 168.102 258.261 169.202Z" fill="#ECECEC"/>
<path d="M247.616 102.349C253.608 99.3545 260.894 101.784 263.888 107.777C266.883 113.769 264.453 121.055 258.461 124.049C252.469 127.044 245.183 124.614 242.188 118.622C239.194 112.63 241.624 105.344 247.616 102.349Z" fill="#ECECEC"/>
<path d="M199.571 54.8041C202.659 48.8591 209.981 46.5426 215.926 49.6303C221.871 52.7179 224.188 60.0403 221.1 65.9853C218.013 71.9303 210.69 74.2467 204.745 71.1591C198.8 68.0715 196.484 60.7491 199.571 54.8041Z" fill="#ECECEC"/>
<path d="M132.786 44.4922C131.789 37.8678 136.352 31.6897 142.976 30.6933C149.601 29.6968 155.779 34.2592 156.775 40.8837C157.772 47.5082 153.209 53.6862 146.585 54.6826C139.96 55.6791 133.782 51.1167 132.786 44.4922Z" fill="#ECECEC"/>
<path d="M72.7691 75.3597C68.0692 70.5861 68.1289 62.9063 72.9025 58.2064C77.6761 53.5064 85.356 53.5662 90.0559 58.3398C94.7558 63.1134 94.6961 70.7932 89.9225 75.4931C85.1489 80.1931 77.4691 80.1333 72.7691 75.3597Z" fill="#ECECEC"/>
<path d="M42.1098 135.827C35.5016 134.728 31.0358 128.48 32.1352 121.872C33.2345 115.263 39.4827 110.798 46.0909 111.897C52.6991 112.996 57.1649 119.245 56.0655 125.853C54.9661 132.461 48.7179 136.927 42.1098 135.827Z" fill="#ECECEC"/>
<path d="M57.2198 232.428C52.0848 236.73 44.4345 236.055 40.1323 230.92C35.8301 225.785 36.5053 218.134 41.6402 213.832C46.7752 209.53 54.4255 210.205 58.7277 215.34C63.0299 220.475 62.3548 228.126 57.2198 232.428Z" fill="#ECECEC"/>
<path d="M122.127 271.871C120.501 278.369 113.915 282.32 107.417 280.694C100.918 279.069 96.9672 272.483 98.5927 265.984C100.218 259.485 106.804 255.535 113.303 257.16C119.802 258.786 123.752 265.372 122.127 271.871Z" fill="#ECECEC"/>
<path d="M197.85 265.499C200.355 271.712 197.349 278.779 191.135 281.284C184.922 283.789 177.855 280.783 175.35 274.569C172.846 268.356 175.852 261.289 182.065 258.784C188.278 256.279 195.345 259.286 197.85 265.499Z" fill="#ECECEC"/>
<path d="M255.443 215.834C261.121 219.388 262.843 226.873 259.289 232.551C255.735 238.229 248.251 239.951 242.572 236.397C236.894 232.843 235.172 225.359 238.726 219.68C242.28 214.002 249.765 212.28 255.443 215.834Z" fill="#ECECEC"/>
<path d="M272.643 142.075C279.326 141.613 285.118 146.655 285.581 153.339C286.043 160.022 281 165.814 274.317 166.276C267.634 166.738 261.841 161.696 261.379 155.012C260.917 148.329 265.96 142.537 272.643 142.075Z" fill="#ECECEC"/>
<path d="M243.388 71.8244C248.523 67.5222 256.173 68.1973 260.475 73.3323C264.777 78.4673 264.102 86.1176 258.967 90.4198C253.832 94.7219 246.182 94.0468 241.88 88.9118C237.578 83.7768 238.253 76.1265 243.388 71.8244Z" fill="#ECECEC"/>
<path d="M178.338 32.5046C179.964 26.0058 186.55 22.0553 193.049 23.6808C199.548 25.3063 203.498 31.8924 201.873 38.3912C200.247 44.89 193.661 48.8405 187.162 47.215C180.663 45.5895 176.713 39.0034 178.338 32.5046Z" fill="#ECECEC"/>
<path d="M102.625 38.8481C100.12 32.635 103.126 25.5678 109.339 23.063C115.552 20.5581 122.62 23.5643 125.124 29.7774C127.629 35.9905 124.623 43.0578 118.41 45.5626C112.197 48.0674 105.13 45.0612 102.625 38.8481Z" fill="#ECECEC"/>
<path d="M45.1644 88.4086C39.486 84.8544 37.764 77.3699 41.3182 71.6915C44.8724 66.0131 52.3569 64.2911 58.0353 67.8453C63.7137 71.3995 65.4357 78.8841 61.8815 84.5625C58.3273 90.2409 50.8428 91.9629 45.1644 88.4086Z" fill="#ECECEC"/>
<path d="M27.6045 162.585C20.9214 163.047 15.129 158.004 14.6667 151.321C14.2045 144.638 19.2474 138.846 25.9305 138.383C32.6135 137.921 38.4059 142.964 38.8682 149.647C39.3304 156.33 34.2875 162.122 27.6045 162.585Z" fill="#ECECEC"/>
<path d="M70.5519 261.549C65.7158 267.97 56.5898 269.255 50.1684 264.419C43.7469 259.583 42.4618 250.457 47.2979 244.036C52.1341 237.614 61.2601 236.329 67.6815 241.165C74.1029 246.002 75.388 255.128 70.5519 261.549Z" fill="#ECECEC"/>
<path d="M150.165 287.497C150.027 295.534 143.399 301.938 135.362 301.8C127.324 301.662 120.92 295.034 121.058 286.997C121.197 278.959 127.824 272.555 135.862 272.693C143.9 272.831 150.303 279.459 150.165 287.497Z" fill="#ECECEC"/>
<path d="M229.797 261.539C234.409 268.123 232.812 277.2 226.228 281.812C219.644 286.425 210.568 284.827 205.955 278.243C201.342 271.66 202.94 262.583 209.524 257.97C216.108 253.358 225.184 254.956 229.797 261.539Z" fill="#ECECEC"/>
<path d="M279.054 193.711C286.655 196.326 290.697 204.608 288.082 212.21C285.467 219.811 277.185 223.854 269.583 221.239C261.982 218.624 257.94 210.341 260.555 202.74C263.17 195.138 271.452 191.096 279.054 193.711Z" fill="#ECECEC"/>
<path d="M278.87 110.227C286.557 107.874 294.696 112.199 297.048 119.885C299.401 127.572 295.076 135.711 287.389 138.063C279.702 140.416 271.564 136.091 269.211 128.404C266.859 120.717 271.183 112.579 278.87 110.227Z" fill="#ECECEC"/>
<path d="M229.762 42.2293C234.598 35.8079 243.724 34.5227 250.145 39.3589C256.567 44.195 257.852 53.321 253.016 59.7424C248.18 66.1638 239.054 67.4489 232.632 62.6128C226.211 57.7767 224.926 48.6507 229.762 42.2293Z" fill="#ECECEC"/>
<path d="M150.044 16.471C150.182 8.4334 156.81 2.02956 164.848 2.16766C172.885 2.30576 179.289 8.93349 179.151 16.9711C179.013 25.0087 172.385 31.4126 164.348 31.2745C156.31 31.1364 149.906 24.5086 150.044 16.471Z" fill="#ECECEC"/>
<path d="M70.4127 42.3906C65.8 35.8068 67.3978 26.7303 73.9816 22.1176C80.5653 17.505 89.6418 19.1028 94.2545 25.6866C98.8672 32.2703 97.2693 41.3468 90.6856 45.9595C84.1018 50.5722 75.0253 48.9743 70.4127 42.3906Z" fill="#ECECEC"/>
<path d="M21.2507 110.067C13.6491 107.452 9.60677 99.1699 12.2219 91.5683C14.837 83.9668 23.1192 79.9245 30.7208 82.5396C38.3223 85.1546 42.3647 93.4369 39.7496 101.038C37.1345 108.64 28.8522 112.682 21.2507 110.067Z" fill="#ECECEC"/>
<path d="M21.149 194.082C13.4621 196.435 5.32364 192.11 2.97122 184.423C0.618798 176.737 4.94326 168.598 12.6302 166.246C20.3171 163.893 28.4556 168.218 30.808 175.905C33.1604 183.591 28.836 191.73 21.149 194.082Z" fill="#ECECEC"/>
<path d="M94.7994 282.97C92.7645 287.578 87.3795 289.664 82.7717 287.629L72.8282 283.238C68.2204 281.203 66.1346 275.818 68.1695 271.21C70.2044 266.602 75.5894 264.516 80.1973 266.551L90.1408 270.943C94.7486 272.978 96.8343 278.363 94.7994 282.97Z" fill="#ECECEC"/>
<path d="M182.479 290.397C183.54 295.314 180.414 300.16 175.497 301.22L164.845 303.518C159.929 304.578 155.083 301.452 154.022 296.536C152.962 291.619 156.088 286.773 161.005 285.713L171.656 283.415C176.573 282.355 181.418 285.481 182.479 290.397Z" fill="#ECECEC"/>
<path d="M257.626 244.691C261.345 248.019 261.662 253.732 258.334 257.451L250.973 265.676C247.645 269.395 241.931 269.711 238.212 266.383C234.493 263.055 234.177 257.342 237.505 253.623L244.866 245.398C248.194 241.679 253.907 241.362 257.626 244.691Z" fill="#ECECEC"/>
<path d="M291.783 163.542C296.771 164.051 300.403 168.508 299.894 173.497L298.782 184.392C298.272 189.381 293.816 193.012 288.827 192.503C283.839 191.994 280.207 187.537 280.716 182.549L281.828 171.653C282.338 166.664 286.794 163.033 291.783 163.542Z" fill="#ECECEC"/>
<path d="M271.689 78.1676C276.067 75.6219 281.681 77.1079 284.226 81.4867L289.639 90.7968C292.185 95.1755 290.699 100.789 286.32 103.335C281.941 105.88 276.328 104.394 273.782 100.016L268.37 90.7055C265.824 86.3267 267.31 80.7133 271.689 78.1676Z" fill="#ECECEC"/>
<path d="M205.092 20.3851C207.13 15.77 212.523 13.681 217.138 15.7191L227.055 20.0988C231.67 22.1369 233.76 27.5303 231.721 32.1454C229.683 36.7604 224.29 38.8494 219.675 36.8113L209.757 32.4316C205.142 30.3935 203.053 25.0001 205.092 20.3851Z" fill="#ECECEC"/>
<path d="M117.358 13.2795C116.304 8.39537 119.409 3.58198 124.293 2.52844L135.063 0.20529C139.947 -0.848254 144.761 2.257 145.814 7.14108C146.868 12.0252 143.762 16.8385 138.878 17.8921L128.109 20.2152C123.225 21.2688 118.411 18.1635 117.358 13.2795Z" fill="#ECECEC"/>
<path d="M42.1194 58.8387C38.3844 55.496 38.0663 49.7584 41.409 46.0234L48.7179 37.8567C52.0606 34.1217 57.7982 33.8036 61.5332 37.1463C65.2682 40.489 65.5863 46.2266 62.2436 49.9616L54.9347 58.1283C51.592 61.8634 45.8544 62.1814 42.1194 58.8387Z" fill="#ECECEC"/>
<path d="M8.13081 139.844C3.1591 139.337 -0.459938 134.895 0.0474584 129.924L1.16565 118.967C1.67304 113.995 6.11474 110.376 11.0864 110.884C16.0582 111.391 19.6772 115.833 19.1698 120.804L18.0516 131.761C17.5442 136.733 13.1025 140.352 8.13081 139.844Z" fill="#ECECEC"/>
<path d="M28.1534 225.784C23.8311 228.297 18.29 226.83 15.7771 222.507L10.2457 212.993C7.73277 208.671 9.19959 203.13 13.5219 200.617C17.8442 198.104 23.3853 199.571 25.8982 203.893L31.4297 213.407C33.9426 217.73 32.4758 223.271 28.1534 225.784Z" fill="#ECECEC"/>
</svg>
