<svg width="479" height="470" viewBox="0 0 479 470" fill="none" xmlns="http://www.w3.org/2000/svg">
<path d="M212.726 205.027C211.938 203.943 212.179 202.426 213.263 201.638C214.346 200.851 215.864 201.091 216.651 202.175C217.439 203.259 217.198 204.776 216.114 205.564C215.031 206.351 213.513 206.111 212.726 205.027Z" fill="#111111"/>
<path d="M199.516 226.595C198.242 226.181 197.544 224.812 197.958 223.538C198.372 222.264 199.741 221.567 201.015 221.981C202.289 222.395 202.987 223.763 202.573 225.037C202.159 226.312 200.79 227.009 199.516 226.595Z" fill="#111111"/>
<path d="M201.506 251.8C200.232 252.214 198.863 251.516 198.449 250.242C198.035 248.968 198.732 247.599 200.007 247.185C201.281 246.771 202.649 247.469 203.063 248.743C203.478 250.017 202.78 251.386 201.506 251.8Z" fill="#111111"/>
<path d="M217.947 271.037C217.16 272.121 215.643 272.361 214.559 271.573C213.475 270.786 213.235 269.269 214.022 268.185C214.81 267.101 216.327 266.861 217.411 267.648C218.495 268.436 218.735 269.953 217.947 271.037Z" fill="#111111"/>
<path d="M241.416 276.269C241.416 277.608 240.329 278.694 238.99 278.694C237.65 278.694 236.564 277.608 236.564 276.269C236.564 274.929 237.65 273.843 238.99 273.843C240.329 273.843 241.416 274.929 241.416 276.269Z" fill="#111111"/>
<path d="M265.926 267.246C266.714 268.33 266.473 269.847 265.389 270.635C264.306 271.422 262.788 271.182 262.001 270.098C261.213 269.014 261.454 267.497 262.538 266.709C263.622 265.922 265.139 266.162 265.926 267.246Z" fill="#111111"/>
<path d="M279.108 245.659C280.382 246.073 281.079 247.442 280.665 248.716C280.251 249.99 278.883 250.688 277.608 250.274C276.334 249.86 275.637 248.491 276.051 247.217C276.465 245.942 277.833 245.245 279.108 245.659Z" fill="#111111"/>
<path d="M277.118 220.445C278.392 220.031 279.761 220.728 280.175 222.002C280.589 223.277 279.891 224.645 278.617 225.059C277.343 225.473 275.974 224.776 275.56 223.502C275.146 222.227 275.843 220.859 277.118 220.445Z" fill="#111111"/>
<path d="M260.695 201.227C261.483 200.143 263 199.903 264.084 200.69C265.168 201.478 265.408 202.995 264.621 204.079C263.833 205.163 262.316 205.403 261.232 204.615C260.148 203.828 259.908 202.311 260.695 201.227Z" fill="#111111"/>
<path d="M236.564 198.639C236.564 197.299 237.65 196.213 238.99 196.213C240.329 196.213 241.416 197.299 241.416 198.639C241.416 199.979 240.329 201.065 238.99 201.065C237.65 201.065 236.564 199.979 236.564 198.639Z" fill="#111111"/>
<path d="M197.728 202.163C196.74 201.258 196.673 199.724 197.578 198.736C198.483 197.748 200.017 197.681 201.005 198.586C201.993 199.491 202.06 201.026 201.155 202.014C200.25 203.001 198.715 203.069 197.728 202.163Z" fill="#111111"/>
<path d="M185.661 233.227C184.329 233.075 183.373 231.873 183.525 230.542C183.676 229.211 184.878 228.255 186.209 228.406C187.541 228.558 188.497 229.76 188.345 231.091C188.194 232.422 186.992 233.379 185.661 233.227Z" fill="#111111"/>
<path d="M194.174 265.465C193.008 266.125 191.528 265.714 190.868 264.548C190.209 263.382 190.619 261.902 191.785 261.242C192.951 260.582 194.431 260.993 195.091 262.159C195.751 263.325 195.341 264.805 194.174 265.465Z" fill="#111111"/>
<path d="M220.067 286.541C219.511 287.76 218.073 288.298 216.853 287.743C215.634 287.187 215.096 285.749 215.652 284.529C216.207 283.31 217.646 282.772 218.865 283.328C220.084 283.883 220.622 285.322 220.067 286.541Z" fill="#111111"/>
<path d="M253.26 288.333C253.528 289.646 252.68 290.927 251.367 291.194C250.054 291.461 248.773 290.614 248.506 289.301C248.239 287.988 249.087 286.707 250.399 286.44C251.712 286.173 252.993 287.02 253.26 288.333Z" fill="#111111"/>
<path d="M281.379 270.327C282.367 271.233 282.434 272.767 281.529 273.755C280.624 274.743 279.09 274.81 278.102 273.905C277.114 273 277.047 271.465 277.952 270.477C278.857 269.489 280.391 269.422 281.379 270.327Z" fill="#111111"/>
<path d="M293.39 239.217C294.721 239.368 295.677 240.57 295.525 241.901C295.374 243.233 294.172 244.189 292.841 244.037C291.509 243.886 290.553 242.684 290.705 241.353C290.856 240.021 292.058 239.065 293.39 239.217Z" fill="#111111"/>
<path d="M284.857 206.979C286.023 206.319 287.503 206.729 288.163 207.895C288.823 209.061 288.412 210.542 287.246 211.201C286.08 211.861 284.6 211.451 283.94 210.285C283.28 209.119 283.691 207.639 284.857 206.979Z" fill="#111111"/>
<path d="M259.05 185.94C259.605 184.721 261.044 184.183 262.263 184.739C263.482 185.294 264.02 186.733 263.465 187.952C262.909 189.171 261.47 189.709 260.251 189.154C259.032 188.598 258.494 187.159 259.05 185.94Z" fill="#111111"/>
<path d="M225.657 184.025C225.39 182.712 226.238 181.431 227.55 181.164C228.863 180.897 230.144 181.745 230.411 183.058C230.679 184.37 229.831 185.651 228.518 185.919C227.205 186.186 225.924 185.338 225.657 184.025Z" fill="#111111"/>
<path d="M182.615 208.286C180.265 206.998 179.404 204.05 180.692 201.7C181.98 199.35 184.928 198.489 187.278 199.776C189.628 201.064 190.489 204.013 189.202 206.363C187.914 208.713 184.965 209.574 182.615 208.286Z" fill="#111111"/>
<path d="M177.07 247.14C174.412 247.479 171.982 245.6 171.643 242.942C171.303 240.284 173.183 237.854 175.841 237.514C178.499 237.175 180.929 239.054 181.268 241.712C181.608 244.37 179.728 246.8 177.07 247.14Z" fill="#111111"/>
<path d="M195.472 281.831C193.521 283.668 190.451 283.576 188.614 281.625C186.777 279.674 186.869 276.604 188.82 274.767C190.771 272.93 193.841 273.022 195.678 274.973C197.515 276.923 197.423 279.994 195.472 281.831Z" fill="#111111"/>
<path d="M230.804 299.087C230.306 301.72 227.768 303.45 225.135 302.951C222.502 302.453 220.772 299.914 221.27 297.282C221.769 294.649 224.307 292.919 226.94 293.417C229.573 293.916 231.303 296.454 230.804 299.087Z" fill="#111111"/>
<path d="M269.327 292.255C270.471 294.678 269.434 297.57 267.011 298.714C264.588 299.859 261.696 298.822 260.552 296.399C259.408 293.976 260.445 291.084 262.868 289.94C265.291 288.796 268.182 289.832 269.327 292.255Z" fill="#111111"/>
<path d="M296.776 264.082C299.126 265.369 299.987 268.318 298.699 270.668C297.412 273.018 294.463 273.879 292.113 272.592C289.763 271.304 288.902 268.355 290.189 266.005C291.477 263.655 294.426 262.794 296.776 264.082Z" fill="#111111"/>
<path d="M302.226 225.181C304.884 224.841 307.314 226.721 307.653 229.379C307.993 232.037 306.113 234.467 303.455 234.806C300.797 235.146 298.367 233.266 298.028 230.608C297.688 227.95 299.568 225.52 302.226 225.181Z" fill="#111111"/>
<path d="M283.815 190.499C285.766 188.662 288.836 188.754 290.673 190.705C292.51 192.656 292.418 195.726 290.467 197.563C288.516 199.4 285.446 199.308 283.609 197.357C281.772 195.406 281.864 192.336 283.815 190.499Z" fill="#111111"/>
<path d="M248.587 173.272C249.085 170.639 251.624 168.908 254.257 169.407C256.889 169.905 258.62 172.444 258.121 175.077C257.623 177.709 255.084 179.44 252.451 178.941C249.819 178.443 248.088 175.904 248.587 173.272Z" fill="#111111"/>
<path d="M209.771 180.008C208.627 177.585 209.663 174.693 212.086 173.549C214.509 172.405 217.401 173.441 218.545 175.865C219.69 178.288 218.653 181.179 216.23 182.324C213.807 183.468 210.915 182.431 209.771 180.008Z" fill="#111111"/>
<path d="M165.149 219.463C162.554 218.796 160.991 216.151 161.658 213.556C162.325 210.96 164.97 209.397 167.565 210.064C170.16 210.731 171.723 213.376 171.056 215.971C170.389 218.567 167.745 220.13 165.149 219.463Z" fill="#111111"/>
<path d="M169.577 266.533C167.085 267.519 164.266 266.298 163.28 263.806C162.295 261.315 163.515 258.496 166.007 257.51C168.499 256.524 171.318 257.745 172.304 260.237C173.289 262.728 172.069 265.547 169.577 266.533Z" fill="#111111"/>
<path d="M200.909 301.976C199.472 304.238 196.474 304.907 194.212 303.471C191.95 302.034 191.281 299.036 192.717 296.774C194.153 294.512 197.152 293.842 199.414 295.279C201.676 296.715 202.345 299.713 200.909 301.976Z" fill="#111111"/>
<path d="M247.139 312.231C247.307 314.905 245.274 317.209 242.6 317.377C239.926 317.544 237.622 315.512 237.454 312.838C237.287 310.163 239.319 307.86 241.993 307.692C244.668 307.524 246.972 309.557 247.139 312.231Z" fill="#111111"/>
<path d="M290.33 293.387C292.037 295.452 291.747 298.51 289.682 300.218C287.617 301.925 284.559 301.635 282.851 299.57C281.144 297.505 281.434 294.447 283.499 292.739C285.564 291.032 288.622 291.321 290.33 293.387Z" fill="#111111"/>
<path d="M314.526 252.668C317.121 253.335 318.684 255.98 318.017 258.575C317.35 261.17 314.706 262.734 312.11 262.066C309.515 261.399 307.952 258.755 308.619 256.16C309.286 253.564 311.931 252.001 314.526 252.668Z" fill="#111111"/>
<path d="M309.966 205.588C312.458 204.603 315.277 205.823 316.263 208.315C317.248 210.807 316.028 213.626 313.536 214.612C311.044 215.597 308.225 214.377 307.239 211.885C306.254 209.393 307.474 206.574 309.966 205.588Z" fill="#111111"/>
<path d="M278.644 170.155C280.08 167.893 283.078 167.224 285.34 168.66C287.602 170.097 288.272 173.095 286.835 175.357C285.399 177.619 282.401 178.288 280.139 176.852C277.876 175.416 277.207 172.417 278.644 170.155Z" fill="#111111"/>
<path d="M232.546 159.9C232.378 157.226 234.411 154.922 237.085 154.754C239.759 154.587 242.063 156.619 242.231 159.293C242.398 161.967 240.366 164.271 237.692 164.439C235.017 164.606 232.713 162.574 232.546 159.9Z" fill="#111111"/>
<path d="M188.986 178.725C187.278 176.66 187.568 173.602 189.633 171.894C191.698 170.187 194.757 170.477 196.464 172.542C198.172 174.607 197.882 177.665 195.817 179.373C193.752 181.08 190.693 180.79 188.986 178.725Z" fill="#111111"/>
<path d="M153.229 237.301C149.21 237.28 145.968 234.006 145.988 229.986C146.008 225.967 149.283 222.725 153.302 222.745C157.321 222.765 160.563 226.04 160.543 230.059C160.523 234.079 157.249 237.321 153.229 237.301Z" fill="#111111"/>
<path d="M170.557 288.054C167.294 290.4 162.746 289.657 160.4 286.393C158.054 283.13 158.797 278.582 162.061 276.236C165.325 273.89 169.872 274.633 172.218 277.897C174.565 281.16 173.821 285.708 170.557 288.054Z" fill="#111111"/>
<path d="M214.465 318.872C213.204 322.688 209.087 324.76 205.271 323.498C201.455 322.237 199.383 318.121 200.644 314.305C201.906 310.488 206.022 308.417 209.838 309.678C213.655 310.939 215.726 315.055 214.465 318.872Z" fill="#111111"/>
<path d="M268.18 317.987C269.403 321.816 267.29 325.911 263.461 327.134C259.632 328.357 255.537 326.244 254.314 322.416C253.091 318.587 255.204 314.491 259.033 313.268C262.862 312.046 266.957 314.158 268.18 317.987Z" fill="#111111"/>
<path d="M310.819 285.787C314.059 288.166 314.757 292.721 312.378 295.961C310 299.201 305.445 299.899 302.205 297.52C298.965 295.141 298.267 290.586 300.646 287.346C303.024 284.106 307.579 283.408 310.819 285.787Z" fill="#111111"/>
<path d="M326.787 234.47C330.807 234.49 334.049 237.765 334.029 241.784C334.009 245.804 330.734 249.046 326.715 249.026C322.695 249.005 319.453 245.731 319.473 241.711C319.493 237.692 322.768 234.45 326.787 234.47Z" fill="#111111"/>
<path d="M309.317 183.745C312.581 181.399 317.128 182.142 319.474 185.406C321.821 188.67 321.077 193.217 317.814 195.563C314.55 197.91 310.002 197.166 307.656 193.902C305.31 190.639 306.054 186.091 309.317 183.745Z" fill="#111111"/>
<path d="M265.4 152.927C266.661 149.111 270.778 147.04 274.594 148.301C278.41 149.562 280.482 153.678 279.221 157.495C277.959 161.311 273.843 163.382 270.027 162.121C266.21 160.86 264.139 156.744 265.4 152.927Z" fill="#111111"/>
<path d="M211.856 153.793C210.633 149.964 212.746 145.869 216.574 144.646C220.403 143.423 224.498 145.536 225.721 149.365C226.944 153.194 224.832 157.289 221.003 158.512C217.174 159.735 213.079 157.622 211.856 153.793Z" fill="#111111"/>
<path d="M168.743 186.059C165.503 183.681 164.805 179.126 167.183 175.886C169.562 172.646 174.117 171.948 177.357 174.327C180.597 176.705 181.295 181.26 178.916 184.5C176.537 187.74 171.982 188.438 168.743 186.059Z" fill="#111111"/>
<path d="M145.024 258.656C139.8 259.852 134.596 256.587 133.399 251.363C132.203 246.139 135.468 240.935 140.692 239.738C145.916 238.542 151.121 241.807 152.317 247.031C153.514 252.255 150.248 257.46 145.024 258.656Z" fill="#111111"/>
<path d="M176.581 310.121C173.057 314.16 166.928 314.577 162.889 311.054C158.851 307.531 158.433 301.401 161.956 297.363C165.479 293.325 171.609 292.907 175.648 296.43C179.686 299.953 180.104 306.083 176.581 310.121Z" fill="#111111"/>
<path d="M232.414 333.155C231.937 338.493 227.223 342.434 221.885 341.958C216.548 341.481 212.607 336.767 213.083 331.429C213.56 326.091 218.273 322.15 223.611 322.627C228.949 323.104 232.89 327.817 232.414 333.155Z" fill="#111111"/>
<path d="M291.205 318.924C293.957 323.523 292.46 329.482 287.862 332.234C283.263 334.986 277.304 333.489 274.552 328.89C271.8 324.292 273.297 318.333 277.896 315.581C282.494 312.829 288.453 314.326 291.205 318.924Z" fill="#111111"/>
<path d="M330.124 273.03C335.053 275.132 337.345 280.833 335.242 285.763C333.139 290.692 327.439 292.984 322.509 290.881C317.58 288.778 315.288 283.077 317.391 278.148C319.494 273.218 325.195 270.927 330.124 273.03Z" fill="#111111"/>
<path d="M334.992 212.726C340.216 211.53 345.421 214.795 346.617 220.019C347.813 225.243 344.548 230.448 339.324 231.644C334.1 232.84 328.896 229.575 327.699 224.351C326.503 219.127 329.768 213.922 334.992 212.726Z" fill="#111111"/>
<path d="M303.275 161.318C306.798 157.279 312.928 156.862 316.966 160.385C321.005 163.908 321.423 170.038 317.899 174.076C314.376 178.115 308.246 178.532 304.208 175.009C300.17 171.486 299.752 165.356 303.275 161.318Z" fill="#111111"/>
<path d="M247.442 138.293C247.918 132.955 252.632 129.015 257.97 129.491C263.308 129.968 267.249 134.681 266.772 140.019C266.296 145.357 261.582 149.298 256.244 148.822C250.906 148.345 246.965 143.631 247.442 138.293Z" fill="#111111"/>
<path d="M188.821 152.448C186.069 147.85 187.566 141.891 192.164 139.139C196.763 136.387 202.722 137.884 205.474 142.482C208.226 147.081 206.729 153.04 202.13 155.792C197.532 158.544 191.573 157.047 188.821 152.448Z" fill="#111111"/>
<path d="M149.438 198.533C144.508 196.43 142.217 190.729 144.32 185.8C146.422 180.87 152.123 178.579 157.053 180.681C161.982 182.784 164.273 188.485 162.171 193.414C160.068 198.344 154.367 200.635 149.438 198.533Z" fill="#111111"/>
<path d="M142.673 285.525C136.68 288.52 129.395 286.09 126.4 280.097C123.405 274.105 125.835 266.819 131.827 263.825C137.82 260.83 145.105 263.26 148.1 269.252C151.095 275.244 148.665 282.53 142.673 285.525Z" fill="#111111"/>
<path d="M190.575 333.184C187.487 339.129 180.165 341.445 174.22 338.357C168.275 335.27 165.958 327.947 169.046 322.002C172.134 316.057 179.456 313.741 185.401 316.829C191.346 319.916 193.663 327.239 190.575 333.184Z" fill="#111111"/>
<path d="M257.37 343.458C258.366 350.082 253.804 356.26 247.179 357.257C240.555 358.253 234.377 353.691 233.38 347.066C232.384 340.442 236.946 334.264 243.571 333.267C250.195 332.271 256.373 336.833 257.37 343.458Z" fill="#111111"/>
<path d="M317.538 312.533C322.238 317.307 322.178 324.987 317.405 329.687C312.631 334.387 304.951 334.327 300.251 329.553C295.551 324.78 295.611 317.1 300.385 312.4C305.158 307.7 312.838 307.76 317.538 312.533Z" fill="#111111"/>
<path d="M347.79 252.34C354.398 253.44 358.864 259.688 357.765 266.296C356.665 272.904 350.417 277.37 343.809 276.271C337.201 275.171 332.735 268.923 333.834 262.315C334.934 255.707 341.182 251.241 347.79 252.34Z" fill="#111111"/>
<path d="M337.145 185.488C343.137 182.493 350.423 184.923 353.418 190.915C356.413 196.908 353.983 204.193 347.99 207.188C341.998 210.183 334.712 207.753 331.718 201.761C328.723 195.768 331.153 188.483 337.145 185.488Z" fill="#111111"/>
<path d="M289.101 137.943C292.188 131.998 299.511 129.681 305.456 132.769C311.401 135.857 313.717 143.179 310.629 149.124C307.542 155.069 300.219 157.385 294.274 154.298C288.329 151.21 286.013 143.888 289.101 137.943Z" fill="#111111"/>
<path d="M222.315 127.631C221.319 121.006 225.881 114.828 232.506 113.832C239.13 112.835 245.308 117.398 246.305 124.022C247.301 130.647 242.739 136.825 236.114 137.821C229.49 138.818 223.312 134.255 222.315 127.631Z" fill="#111111"/>
<path d="M162.298 158.498C157.599 153.725 157.658 146.045 162.432 141.345C167.205 136.645 174.885 136.705 179.585 141.478C184.285 146.252 184.225 153.932 179.452 158.632C174.678 163.332 166.998 163.272 162.298 158.498Z" fill="#111111"/>
<path d="M131.639 218.966C125.031 217.867 120.565 211.618 121.664 205.01C122.764 198.402 129.012 193.936 135.62 195.036C142.228 196.135 146.694 202.383 145.595 208.991C144.495 215.6 138.247 220.065 131.639 218.966Z" fill="#111111"/>
<path d="M146.749 315.566C141.614 319.869 133.964 319.193 129.662 314.058C125.359 308.923 126.035 301.273 131.17 296.971C136.305 292.669 143.955 293.344 148.257 298.479C152.559 303.614 151.884 311.264 146.749 315.566Z" fill="#111111"/>
<path d="M211.656 355.009C210.031 361.508 203.445 365.459 196.946 363.833C190.447 362.208 186.496 355.622 188.122 349.123C189.748 342.624 196.334 338.673 202.832 340.299C209.331 341.924 213.282 348.51 211.656 355.009Z" fill="#111111"/>
<path d="M287.379 348.637C289.884 354.85 286.878 361.918 280.665 364.423C274.452 366.927 267.384 363.921 264.88 357.708C262.375 351.495 265.381 344.428 271.594 341.923C277.807 339.418 284.874 342.424 287.379 348.637Z" fill="#111111"/>
<path d="M344.972 298.973C350.651 302.527 352.373 310.011 348.819 315.69C345.264 321.368 337.78 323.09 332.101 319.536C326.423 315.982 324.701 308.497 328.255 302.819C331.809 297.14 339.294 295.418 344.972 298.973Z" fill="#111111"/>
<path d="M362.172 225.213C368.855 224.751 374.648 229.794 375.11 236.477C375.572 243.16 370.529 248.953 363.846 249.415C357.163 249.877 351.371 244.834 350.908 238.151C350.446 231.468 355.489 225.676 362.172 225.213Z" fill="#111111"/>
<path d="M332.917 154.963C338.052 150.661 345.702 151.336 350.004 156.471C354.307 161.606 353.632 169.256 348.497 173.558C343.362 177.861 335.711 177.185 331.409 172.051C327.107 166.916 327.782 159.265 332.917 154.963Z" fill="#111111"/>
<path d="M267.868 115.643C269.493 109.144 276.079 105.194 282.578 106.819C289.077 108.445 293.027 115.031 291.402 121.53C289.776 128.029 283.19 131.979 276.691 130.354C270.193 128.728 266.242 122.142 267.868 115.643Z" fill="#111111"/>
<path d="M192.154 121.987C189.649 115.774 192.655 108.706 198.869 106.202C205.082 103.697 212.149 106.703 214.654 112.916C217.159 119.129 214.152 126.196 207.939 128.701C201.726 131.206 194.659 128.2 192.154 121.987Z" fill="#111111"/>
<path d="M134.694 171.547C129.015 167.993 127.293 160.509 130.847 154.83C134.402 149.152 141.886 147.43 147.565 150.984C153.243 154.538 154.965 162.023 151.411 167.701C147.857 173.38 140.372 175.102 134.694 171.547Z" fill="#111111"/>
<path d="M117.134 245.723C110.451 246.186 104.658 241.143 104.196 234.46C103.734 227.777 108.777 221.984 115.46 221.522C122.143 221.06 127.935 226.103 128.397 232.786C128.86 239.469 123.817 245.261 117.134 245.723Z" fill="#111111"/>
<path d="M160.081 344.688C155.245 351.109 146.119 352.394 139.698 347.558C133.276 342.722 131.991 333.596 136.827 327.174C141.663 320.753 150.789 319.468 157.211 324.304C163.632 329.14 164.917 338.266 160.081 344.688Z" fill="#111111"/>
<path d="M239.695 370.635C239.556 378.673 232.929 385.077 224.891 384.939C216.853 384.801 210.45 378.173 210.588 370.135C210.726 362.098 217.354 355.694 225.391 355.832C233.429 355.97 239.833 362.598 239.695 370.635Z" fill="#111111"/>
<path d="M319.326 344.678C323.939 351.262 322.341 360.338 315.757 364.951C309.173 369.564 300.097 367.966 295.484 361.382C290.872 354.798 292.469 345.722 299.053 341.109C305.637 336.496 314.713 338.094 319.326 344.678Z" fill="#111111"/>
<path d="M368.583 276.85C376.184 279.465 380.227 287.747 377.612 295.349C374.997 302.95 366.714 306.992 359.113 304.377C351.511 301.762 347.469 293.48 350.084 285.878C352.699 278.277 360.981 274.235 368.583 276.85Z" fill="#111111"/>
<path d="M368.4 193.365C376.087 191.013 384.225 195.337 386.577 203.024C388.93 210.711 384.605 218.85 376.918 221.202C369.232 223.554 361.093 219.23 358.741 211.543C356.388 203.856 360.713 195.718 368.4 193.365Z" fill="#111111"/>
<path d="M319.291 125.368C324.127 118.947 333.253 117.661 339.675 122.498C346.096 127.334 347.381 136.46 342.545 142.881C337.709 149.302 328.583 150.588 322.161 145.751C315.74 140.915 314.455 131.789 319.291 125.368Z" fill="#111111"/>
<path d="M239.573 99.6097C239.712 91.5721 246.339 85.1682 254.377 85.3063C262.415 85.4444 268.818 92.0722 268.68 100.11C268.542 108.147 261.914 114.551 253.877 114.413C245.839 114.275 239.435 107.647 239.573 99.6097Z" fill="#111111"/>
<path d="M159.942 125.529C155.329 118.945 156.927 109.869 163.511 105.256C170.095 100.644 179.171 102.242 183.784 108.825C188.396 115.409 186.799 124.485 180.215 129.098C173.631 133.711 164.555 132.113 159.942 125.529Z" fill="#111111"/>
<path d="M110.78 193.206C103.178 190.591 99.1361 182.309 101.751 174.707C104.366 167.105 112.649 163.063 120.25 165.678C127.852 168.293 131.894 176.576 129.279 184.177C126.664 191.779 118.382 195.821 110.78 193.206Z" fill="#111111"/>
<path d="M110.678 277.221C102.991 279.573 94.8529 275.249 92.5005 267.562C90.1481 259.875 94.4726 251.737 102.159 249.384C109.846 247.032 117.985 251.356 120.337 259.043C122.69 266.73 118.365 274.869 110.678 277.221Z" fill="#111111"/>
<path d="M184.329 366.109C182.294 370.717 176.909 372.803 172.301 370.768L162.358 366.376C157.75 364.341 155.664 358.957 157.699 354.349C159.734 349.741 165.119 347.655 169.727 349.69L179.67 354.081C184.278 356.116 186.364 361.501 184.329 366.109Z" fill="#111111"/>
<path d="M272.008 373.536C273.069 378.453 269.943 383.298 265.026 384.359L254.375 386.656C249.458 387.717 244.612 384.591 243.552 379.674C242.491 374.758 245.617 369.912 250.534 368.852L261.185 366.554C266.102 365.493 270.948 368.619 272.008 373.536Z" fill="#111111"/>
<path d="M347.156 327.829C350.875 331.158 351.191 336.871 347.863 340.59L340.502 348.814C337.174 352.533 331.461 352.85 327.742 349.522C324.023 346.193 323.706 340.48 327.034 336.761L334.395 328.537C337.723 324.818 343.437 324.501 347.156 327.829Z" fill="#111111"/>
<path d="M381.312 246.681C386.301 247.19 389.932 251.647 389.423 256.635L388.311 267.531C387.802 272.519 383.345 276.151 378.356 275.642C373.368 275.133 369.737 270.676 370.246 265.687L371.358 254.792C371.867 249.803 376.324 246.172 381.312 246.681Z" fill="#111111"/>
<path d="M361.218 161.306C365.597 158.761 371.21 160.247 373.756 164.625L379.168 173.935C381.714 178.314 380.228 183.928 375.849 186.473C371.471 189.019 365.857 187.533 363.311 183.154L357.899 173.844C355.353 169.465 356.839 163.852 361.218 161.306Z" fill="#111111"/>
<path d="M294.621 103.524C296.659 98.9087 302.052 96.8197 306.667 98.8578L316.585 103.237C321.2 105.276 323.289 110.669 321.251 115.284C319.213 119.899 313.819 121.988 309.204 119.95L299.287 115.57C294.672 113.532 292.583 108.139 294.621 103.524Z" fill="#111111"/>
<path d="M206.887 96.4181C205.833 91.534 208.939 86.7207 213.823 85.6671L224.592 83.344C229.477 82.2904 234.29 85.3957 235.343 90.2798C236.397 95.1638 233.292 99.9772 228.408 101.031L217.638 103.354C212.754 104.407 207.94 101.302 206.887 96.4181Z" fill="#111111"/>
<path d="M131.649 141.977C127.914 138.635 127.596 132.897 130.938 129.162L138.247 120.995C141.59 117.26 147.327 116.942 151.062 120.285C154.798 123.628 155.116 129.365 151.773 133.1L144.464 141.267C141.121 145.002 135.384 145.32 131.649 141.977Z" fill="#111111"/>
<path d="M97.6601 222.983C92.6884 222.476 89.0694 218.034 89.5768 213.062L90.6949 202.106C91.2023 197.134 95.644 193.515 100.616 194.022C105.587 194.53 109.206 198.971 108.699 203.943L107.581 214.9C107.074 219.871 102.632 223.49 97.6601 222.983Z" fill="#111111"/>
<path d="M117.683 308.922C113.36 311.435 107.819 309.968 105.306 305.646L99.775 296.132C97.2621 291.809 98.7289 286.268 103.051 283.755C107.374 281.242 112.915 282.709 115.427 287.032L120.959 296.546C123.472 300.868 122.005 306.409 117.683 308.922Z" fill="#111111"/>
</svg>
